<svg xmlns="http://www.w3.org/2000/svg" version="1.1" xmlns:xlink="http://www.w3.org/1999/xlink" xmlns:svgjs="http://svgjs.dev/svgjs" width="2000" height="1250" viewBox="0 0 2000 1250"><g transform="matrix(1,0,0,1,0,0)"><svg viewBox="0 0 576 360" data-background-color="#0c1d36" preserveAspectRatio="xMidYMid meet" height="1250" width="2000" xmlns="http://www.w3.org/2000/svg" xmlns:xlink="http://www.w3.org/1999/xlink"><g id="tight-bounds" transform="matrix(1,0,0,1,0,0)"><svg viewBox="0 0 576 360" height="360" width="576"><g><svg></svg></g><g><svg viewBox="0 0 576 360" height="360" width="576"><g><path xmlns="http://www.w3.org/2000/svg" d="M132.115 90l155.885-90 155.885 90v180l-155.885 90-155.885-90z" fill="#f9cc0b" fill-rule="nonzero" stroke="none" stroke-width="1" stroke-linecap="butt" stroke-linejoin="miter" stroke-miterlimit="10" stroke-dasharray="" stroke-dashoffset="0" font-family="none" font-weight="none" font-size="none" text-anchor="none" style="mix-blend-mode: normal" data-fill-palette-color="tertiary"></path></g><g transform="matrix(1,0,0,1,237.63922419367958,99)"><svg viewBox="0 0 100.72155161264084 162" height="162" width="100.72155161264084"><g><svg viewBox="0 0 151.0785 242.993844" height="162" width="100.72155161264084"><g><svg viewBox="0 0 151.0785 242.993844" height="242.993844" width="151.0785"><g id="textblocktransform"><svg viewBox="0 0 151.0785 242.993844" height="242.993844" width="151.0785" id="textblock"><g><rect width="151.0785" height="162" fill="none" stroke-width="5.909922" stroke="#f9cc0b" data-fill-palette-color="none" data-stroke-palette-color="tertiary"></rect><rect width="151.0785" height="80.993844" y="162" fill="#f9cc0b" data-fill-palette-color="tertiary"></rect></g><g><svg viewBox="0 0 151.0785 162" height="162" width="151.0785"><g transform="matrix(1,0,0,1,15.471,15.471)"><svg width="120.1365" viewBox="2.049999952316284 -35.5 33 36" height="131.058" data-palette-color="#0c1d36"><path d="M2.05 0L2.05-35 7.55-35 7.55-5 16.6-5 16.6 0 2.05 0ZM26.85 0.5Q22.85 0.5 20.75-1.78 18.65-4.05 18.65-8.3L18.65-8.3 18.65-26.7Q18.65-30.95 20.75-33.23 22.85-35.5 26.85-35.5L26.85-35.5Q30.85-35.5 32.95-33.23 35.05-30.95 35.05-26.7L35.05-26.7 35.05-23.7 29.85-23.7 29.85-27.05Q29.85-30.5 27-30.5L27-30.5Q24.15-30.5 24.15-27.05L24.15-27.05 24.15-7.9Q24.15-4.5 27-4.5L27-4.5Q29.85-4.5 29.85-7.9L29.85-7.9 29.85-14.75 27.1-14.75 27.1-19.75 35.05-19.75 35.05-8.3Q35.05-4.05 32.95-1.78 30.85 0.5 26.85 0.5L26.85 0.5Z" opacity="1" transform="matrix(1,0,0,1,0,0)" fill="#0c1d36" class="undefined-text-0" data-fill-palette-color="quaternary" id="text-0"></path></svg></g></svg></g></svg></g></svg></g></svg></g></svg></g></svg></g><defs></defs></svg><rect width="576" height="360" fill="none" stroke="none" visibility="hidden"></rect></g></svg></g></svg>